#!OML:ASF H:\GeneralSubjects\Female5\Project 1\Capture day 1\Session 1\Female5.ASF
:FULLY-SPECIFIED
:DEGREES
217
root 8.17899 15.9334 2.85436 -196.876 -71.8637 -147.596
lowerback 8.8824 1.86323 0.0161104
upperback -9.50143 2.67776 3.21348
thorax -15.8062 1.3694 3.05254
lowerneck -12.7412 -13.4729 -15.2993
upperneck 27.2625 -18.0821 5.3744
head 13.1808 -9.20988 1.48679
rclavicle -6.30272e-014 1.07344e-014
rhumerus 1.79937 45.8487 -46.0228
rradius 76.5399
rwrist 2.14903
rhand -23.3478 -14.2869
rfingers 7.12502
rthumb 3.10717 -44.244
lclavicle -6.30272e-014 1.07344e-014
lhumerus -58.9893 -15.7739 86.7316
lradius 85.7154
lwrist -25.983
lhand -29.0833 20.9322
lfingers 7.12502
lthumb -2.43218 50.8981
rfemur -4.41591 3.97507 39.2902
rtibia -1.05406
rfoot -39.7492 -27.9014
rtoes 11.8821
lfemur -30.5406 -5.67199 -15.4253
ltibia 29.4115
lfoot -22.388 -0.0054934
ltoes -52.528
218
root 8.12462 15.9243 2.90646 -196.781 -72.2101 -147.639
lowerback 8.9336 1.8142 0.0179104
upperback -9.61877 2.60434 3.16987
thorax -15.977 1.33135 3.02104
lowerneck -12.5723 -13.5434 -15.5656
upperneck 27.1479 -18.2845 5.8103
head 13.2052 -9.27906 1.65552
rclavicle -2.03133e-014 2.66371e-014
rhumerus -2.49108 46.5199 -49.2738
rradius 78.6488
rwrist 2.58838
rhand -23.341 -14.1762
rfingers 7.12502
rthumb 3.11374 -44.1332
lclavicle -2.03133e-014 2.66371e-014
lhumerus -60.811 -13.5785 86.1434
lradius 86.1418
lwrist -25.1584
lhand -28.8671 20.7143
lfingers 7.12502
lthumb -2.22336 50.6825
rfemur -5.00366 1.85197 38.6952
rtibia 0.064595
rfoot -38.8035 -26.6765
rtoes 11.1367
lfemur -30.6878 -6.28232 -15.9197
ltibia 29.8144
lfoot -22.6133 -0.246655
ltoes -52.8544
219
root 8.06214 15.9107 2.95766 -197.087 -72.3515 -147.264
lowerback 8.8336 1.77192 0.110137
upperback -9.70698 2.55733 3.19831
thorax -16.015 1.29883 3.01603
lowerneck -12.4648 -13.6656 -15.8647
upperneck 27.0492 -18.5879 6.35994
head 13.281 -9.38029 1.8441
rclavicle -1.47101e-014 -6.69904e-014
rhumerus -7.05615 46.8817 -52.6932
rradius 80.4895
rwrist 3.2298
rhand -23.3921 -13.967
rfingers 7.12502
rthumb 3.06445 -43.9247
lclavicle -1.47101e-014 -6.69904e-014
lhumerus -62.5068 -11.5939 85.6131
lradius 86.6051
lwrist -24.2938
lhand -29.027 21.5648
lfingers 7.12502
lthumb -2.37776 51.5313
rfemur -5.68181 -0.406301 38.3031
rtibia 1.47043
rfoot -37.4213 -25.5117
rtoes 9.464
lfemur -30.7908 -6.73611 -16.1421
ltibia 30.2091
lfoot -22.7185 -0.408359
ltoes -52.8126
220
root 7.99592 15.8947 3.00961 -197.765 -72.3941 -146.514
lowerback 8.63705 1.7359 0.25894
upperback -9.72949 2.53339 3.29486
thorax -15.9116 1.27505 3.05069
lowerneck -12.7618 -13.8221 -15.9904
upperneck 27.0579 -18.851 6.70939
head 13.4368 -9.45044 1.91221
rclavicle 2.43511e-014 -7.15625e-015
rhumerus -11.6975 46.8201 -56.0426
rradius 81.9545
rwrist 3.99809
rhand -23.5121 -13.6511
rfingers 7.12502
rthumb 2.94855 -43.6105
lclavicle 2.43511e-014 -7.15625e-015
lhumerus -63.8091 -9.91074 85.2189
lradius 86.8786
lwrist -23.759
lhand -29.5315 21.5754
lfingers 7.12502
lthumb -2.86504 51.5359
rfemur -6.36672 -2.5959 38.0557
rtibia 2.95168
rfoot -35.8691 -24.6012
rtoes 6.64633
lfemur -30.8353 -7.20593 -16.1583
ltibia 30.4773
lfoot -22.8275 -0.96161
ltoes -51.5587
221
root 7.93134 15.88 3.06385 -198.565 -72.4091 -145.766
lowerback 8.63246 1.67382 0.31283
upperback -9.71947 2.47321 3.45552
thorax -15.9008 1.252 3.21685
lowerneck -13.3021 -13.9781 -16.1282
upperneck 27.1966 -19.0666 7.00223
head 13.6877 -9.49525 1.95021
rclavicle -3.9496e-014 -4.55217e-014
rhumerus -16.2636 46.538 -59.2662
rradius 82.9543
rwrist 4.88359
rhand -23.7083 -13.5632
rfingers 7.12502
rthumb 2.75907 -43.5251
lclavicle -3.9496e-014 -4.55217e-014
lhumerus -64.8573 -8.3682 85.0152
lradius 86.997
lwrist -23.6987
lhand -29.921 21.5121
lfingers 7.12502
lthumb -3.24115 51.4672
rfemur -7.09428 -4.69708 37.7677
rtibia 4.83683
rfoot -34.5204 -23.5467
rtoes 4.25183
lfemur -30.6028 -7.74968 -16.1846
ltibia 30.4883
lfoot -23.0393 -1.73382
ltoes -49.8469
222
root 7.86838 15.8642 3.12045 -199.255 -72.3864 -145.248
lowerback 8.76754 1.6269 0.267073
upperback -9.70096 2.42207 3.59777
thorax -15.9752 1.24507 3.41505
lowerneck -13.5196 -14.1292 -16.349
upperneck 27.1413 -19.3692 7.52519
head 13.845 -9.5741 2.09338
rclavicle 9.69075e-016 -7.35503e-015
rhumerus -20.9065 45.9205 -62.3889
rradius 83.6111
rwrist 5.60913
rhand -24.2161 -13.4107
rfingers 7.12502
rthumb 2.26865 -43.3784
lclavicle 9.69075e-016 -7.35503e-015
lhumerus -65.855 -7.10945 85.0032
lradius 87.2187
lwrist -23.8375
lhand -30.6695 22.7246
lfingers 7.12502
lthumb -3.96397 52.6675
rfemur -7.95238 -6.67535 37.3331
rtibia 7.34335
rfoot -32.9786 -22.3
rtoes 2.05216
lfemur -30.005 -8.41017 -16.3137
ltibia 30.1223
lfoot -23.2246 -2.56686
ltoes -47.7172
223
root 7.80728 15.8476 3.18153 -199.459 -72.3901 -145.256
lowerback 8.88533 1.62008 0.0959007
upperback -9.65741 2.39826 3.65975
thorax -16.0099 1.2605 3.58569
lowerneck -13.2002 -14.2797 -16.5453
upperneck 26.7781 -19.7766 8.17124
head 13.7925 -9.70988 2.29969
rclavicle -3.42904e-015 -4.27387e-014
rhumerus -25.5383 44.8141 -65.1108
rradius 84.1219
rwrist 6.15271
rhand -24.7271 -13.0064
rfingers 7.12502
rthumb 1.77511 -42.9788
lclavicle -3.42904e-015 -4.27387e-014
lhumerus -66.5832 -6.2413 85.1689
lradius 87.4879
lwrist -24.0321
lhand -30.9698 23.2938
lfingers 7.12502
lthumb -4.254 53.2311
rfemur -9.08531 -8.51678 36.5841
rtibia 10.5234
rfoot -30.8875 -20.7021
rtoes 0.0413446
lfemur -29.1718 -9.28427 -16.6676
ltibia 29.4408
lfoot -23.3961 -2.81377
ltoes -46.0438
224
root 7.75452 15.839 3.24862 -199.058 -72.4218 -145.901
lowerback 9.07767 1.61941 -0.271098
upperback -9.61263 2.349 3.67519
thorax -16.0972 1.28524 3.8195
lowerneck -12.7169 -14.3398 -16.6808
upperneck 26.3589 -20.0988 8.84345
head 13.6709 -9.81416 2.53848
rclavicle -1.09953e-014 2.22639e-014
rhumerus -29.7938 43.4394 -67.3375
rradius 84.4078
rwrist 6.6217
rhand -24.9089 -12.9961
rfingers 7.12502
rthumb 1.59958 -42.9698
lclavicle -1.09953e-014 2.22639e-014
lhumerus -67.0477 -5.55816 85.4097
lradius 87.7167
lwrist -24.1749
lhand -30.7293 23.0308
lfingers 7.12502
lthumb -4.02175 52.9726
rfemur -10.8425 -10.2385 35.5236
rtibia 14.7474
rfoot -28.2008 -19.145
rtoes -2.00719
lfemur -28.2754 -10.2257 -17.2706
ltibia 28.6419
lfoot -23.6614 -2.35419
ltoes -45.5639
225
root 7.7131 15.8444 3.31972 -198.411 -72.2591 -146.81
lowerback 9.38513 1.6917 -0.713189
upperback -9.54054 2.39243 3.71139
thorax -16.2399 1.36523 4.09744
lowerneck -12.3886 -14.3663 -16.7047
upperneck 26.1089 -20.3457 9.35928
head 13.6092 -9.88851 2.70617
rclavicle 6.68413e-015 4.77083e-015
rhumerus -33.506 41.9422 -68.9285
rradius 84.4721
rwrist 6.77276
rhand -25.158 -13.2507
rfingers 7.12502
rthumb 1.35897 -43.2261
lclavicle 6.68413e-015 4.77083e-015
lhumerus -67.285 -5.05794 85.7646
lradius 87.9741
lwrist -24.2133
lhand -30.7142 23.2264
lfingers 7.12502
lthumb -4.0072 53.1685
rfemur -13.478 -11.6383 34.4767
rtibia 20.2178
rfoot -24.5195 -18.7734
rtoes -6.04034
lfemur -27.3996 -10.9759 -17.8579
ltibia 27.9004
lfoot -24.0964 -1.57098
ltoes -45.9985
